# AST/ASF file generated using VICON BodyLanguage
# -----------------------------------------------
:version 1.10
:name VICON
:units
  mass 1.0
  length 0.45
  angle deg
:documentation
   .ast/.asf automatically generated from VICON data using
   VICON BodyBuilder and BodyLanguage model FoxedUp or BRILLIANT.MOD
:root
   order TX TY TZ RX RY RZ
   axis XYZ
   position 0 0 0  
   orientation 0 0 0 
:bonedata
  begin
     id 1 
     name lhipjoint
     direction 0.606768 -0.715223 0.346827 
     length 2.41543 
     axis 0 0 0  XYZ
  end
  begin
     id 2 
     name lfemur
     direction 0.34202 -0.939693 0  
     length 7.2778  
     axis 0 0 20  XYZ
    dof rx ry rz
    limits (-160.0 20.0)
           (-70.0 70.0)
           (-60.0 70.0)
  end
  begin
     id 3 
     name ltibia
     direction 0.34202 -0.939693 0   
     length 7.61811   
     axis 0 0 20   XYZ
    dof rx
    limits (-10.0 170.0)
  end
  begin
     id 4 
     name lfoot
     direction 0.0823924 -0.226371 0.97055   
     length 2.33618   
     axis -90 7.62852e-016 20   XYZ
    dof rx rz
    limits (-45.0 90.0)
           (-70.0 20.0)
  end
  begin
     id 5 
     name ltoes
     direction 1.53554e-011 -4.21934e-011 1   
     length 1.17015   
     axis -90 7.62852e-016 20   XYZ
    dof rx
    limits (-90.0 20.0)
  end
  begin
     id 6 
     name rhipjoint
     direction -0.6077 -0.714582 0.346516   
     length 2.4176  
     axis 0 0 0  XYZ 
  end
  begin
     id 7 
     name rfemur
     direction -0.34202 -0.939693 0   
     length 7.28127   
     axis 0 0 -20   XYZ
    dof rx ry rz
    limits (-160.0 20.0)
           (-70.0 70.0)
           (-70.0 60.0)
  end
  begin
     id 8 
     name rtibia
     direction -0.34202 -0.939693 0   
     length 7.77648   
     axis 0 0 -20   XYZ
    dof rx
    limits (-10.0 170.0)
 end
 begin
     id 9 
     name rfoot
     direction -0.0809463 -0.222398 0.97159   
     length 2.37533  
     axis -90 -7.62852e-016 -20   XYZ
    dof rx rz
    limits (-45.0 90.0)
           (-20.0 70.0)
  end
  begin
     id 10 
     name rtoes
     direction -1.53568e-011 -4.21714e-011 1   
     length 1.18972   
     axis -90 -7.62852e-016 -20   XYZ
    dof rx
    limits (-90.0 20.0)
  end
  begin
     id 11 
     name lowerback
     direction 0.010968 0.991932 -0.126297   
     length 2.21698   
     axis 0 0 0   XYZ
    dof rx ry rz
    limits (-20.0 45.0)
           (-30.0 30.0)
           (-30.0 30.0)
  end
  begin
     id 12 
     name upperback
     direction 0.0167007 0.997503 -0.0686276   
     length 2.22371   
     axis 0 0 0   XYZ
    dof rx ry rz
    limits (-20.0 45.0)
           (-30.0 30.0)
           (-30.0 30.0)
  end
  begin
     id 13 
     name thorax
     direction 0.0111721 0.999885 -0.0102878   
     length 2.25242   
     axis 0 0 0   XYZ
    dof rx ry rz
    limits (-20.0 45.0)
           (-30.0 30.0)
           (-30.0 30.0)
  end
  begin
     id 14 
     name lowerneck
     direction -0.0120265 0.990428 0.137508   
     length 1.57674   
     axis 0 0 0   XYZ
    dof rx ry rz
    limits (-20.0 45.0)
           (-30.0 30.0)
           (-30.0 30.0)
  end
  begin
     id 15 
     name upperneck
     direction 0.0175669 0.998907 0.0433089   
     length 1.5618   
     axis 0 0 0   XYZ
    dof rx ry rz
    limits (-20.0 45.0)
           (-30.0 30.0)
           (-30.0 30.0)
  end
  begin
     id 16
     name head
     direction 0.00754609 0.99997 0.00185367  
     length 1.60579  
     axis 0 0 0   XYZ
    dof rx ry rz
    limits (-20.0 45.0)
           (-30.0 30.0)
           (-30.0 30.0)
  end
  begin
     id 17 
     name lclavicle
     direction 0.885866 0.429166 -0.176231  
     length 3.44967  
     axis 0 0 0   XYZ
    dof ry rz
    limits (-20.0 10.0)
           (0.0 20.0)
  end
  begin
     id 18 
     name lhumerus
     direction 1 -4.48973e-011 -1.90255e-027   
     length 5.20607   
     axis 180 -30 -90   XYZ
    dof rx ry rz
    limits (-60.0 90.0)
           (-90.0 90.0)
           (-90.0 90.0)
  end
  begin
     id 19
     name lradius
     direction 1 -4.48956e-011 9.87925e-027   
     length 3.39961   
     axis 180 -30 -90   XYZ
    dof rx
    limits (-10.0 170.0)
  end
  begin
     id 20
     name lwrist
     direction 1 -4.48985e-011 1.73247e-026   
     length 1.6998   
     axis -9.60847e-015 90 90   XYZ
    dof ry
    limits (-180.0 0.0)
 end
  begin
     id 21 
     name lhand
     direction 1 -4.48798e-011 3.46119e-026   
     length 0.519693   
     axis -2.21073e-014 90 90   XYZ
    dof rx rz
    limits (-90.0 90.0)
           (-45.0 45.0)
  end
  begin
     id 22 
     name lfingers
     direction 1 -4.48938e-011 6.92797e-026   
     length 0.41899   
     axis -4.42155e-014 90 90   XYZ
    dof rx
    limits (0.0 90.0)
  end
  begin
     id 23
     name lthumb
     direction 0.707107 -6.34952e-011 0.707107   
     length 0.601588   
     axis -90 45 6.0103e-014   XYZ
    dof rx rz
    limits (-45.0 45.0)
           (-45.0 45.0)
  end
  begin
     id 24 
     name rclavicle
     direction -0.866736 0.456792 -0.200276   
     length 3.45032  
     axis 0 0 0   XYZ 
    dof ry rz
    limits (-10.0 20.0)
           (-20.0 0.0)
  end
  begin
     id 25 
     name rhumerus
     direction -1 -4.4897e-011 8.65094e-028  
     length 5.32214   
     axis 180 30 90   XYZ
    dof rx ry rz
    limits (-90.0 60.0)
           (-90.0 90.0)
           (-90.0 90.0)
  end
  begin
     id 26 
     name rradius
     direction -1 -4.48987e-011 1.08427e-026   
     length 3.51208   
     axis 180 30 90   XYZ
    dof rx
    limits (-10.0 170.0)
  end
  begin
     id 27 
     name rwrist
     direction -1 -4.48961e-011 1.73222e-026   
     length 1.75604   
     axis -9.60847e-015 -90 -90   XYZ
    dof ry
    limits (-180.0 0.0)
  end
  begin
     id 28
     name rhand
     direction -1 -4.48895e-011 3.46314e-026   
     length 0.586681   
     axis -2.21073e-014 -90 -90   XYZ
    dof rx rz
    limits (-90.0 90.0)
           (-45.0 45.0)
  end
  begin
     id 29
     name rfingers
     direction -1 -4.48968e-011 6.92916e-026   
     length 0.472997   
     axis -4.42155e-014 -90 -90   XYZ
    dof rx
    limits (0.0 90.0)
  end
  begin
     id 30
     name rthumb
     direction -0.707107 -6.34848e-011 0.707107   
     length 0.679133   
     axis -90 -45 -6.0103e-014   XYZ
    dof rx rz
    limits (-45.0 45.0)
           (-45.0 45.0)
  end
:hierarchy
  begin
    root lhipjoint rhipjoint lowerback
    lhipjoint lfemur
    lfemur ltibia
    ltibia lfoot
    lfoot ltoes
    rhipjoint rfemur
    rfemur rtibia
    rtibia rfoot
    rfoot rtoes
    lowerback upperback
    upperback thorax
    thorax lowerneck lclavicle rclavicle
    lowerneck upperneck
    upperneck head
    lclavicle lhumerus
    lhumerus lradius
    lradius lwrist
    lwrist lhand lthumb
    lhand lfingers
    rclavicle rhumerus
    rhumerus rradius
    rradius rwrist
    rwrist rhand rthumb
    rhand rfingers
  end

#!OML:ASF H:\Dans Jumps\Project 1\Capture day 1\Session 1\subject.ASF
:FULLY-SPECIFIED
:DEGREES
47
root 0.222511 17.535 -14.3589 8.9023 -0.63693 -1.32671
lowerback 2.61386 -0.0344217 -0.229064
upperback 6.42173 -0.113704 1.65955
thorax 5.17807 -0.11625 1.84537
lowerneck -11.7564 0.506096 -1.25477
upperneck 34.7023 0.894672 0.489552
head 13.693 0.287566 0.549399
rclavicle 5.36719e-015 -5.56597e-015
rhumerus -31.589 -9.0276 -80.4316
rradius 37.1664
rwrist 18.2687
rhand -20.8484 -27.9212
rfingers 7.12502
rthumb 5.5207 -57.8293
lclavicle 5.36719e-015 -5.56597e-015
lhumerus -27.2343 -3.5737 87.5242
lradius 28.6512
lwrist 14.5583
lhand -26.4906 -3.95701
lfingers 7.12502
lthumb 0.0718976 26.0227
rfemur -21.5505 -3.04217 19.897
rtibia 26.7924
rfoot -13.0515 -3.5291
rtoes 9.32167
lfemur -20.3884 7.24684 -18.9512
ltibia 24.2005
lfoot -10.777 4.49189
ltoes 4.88527
48
root 0.222993 17.5344 -14.3592 8.89886 -0.627647 -1.33308
lowerback 2.62706 -0.0348119 -0.22849
upperback 6.42185 -0.114318 1.66431
thorax 5.17075 -0.116621 1.84995
lowerneck -11.7656 0.503056 -1.2536
upperneck 34.6935 0.888486 0.493962
head 13.6912 0.285688 0.550032
rclavicle 4.77083e-015 -2.78299e-015
rhumerus -31.5626 -9.0207 -80.4412
rradius 37.1845
rwrist 18.2736
rhand -20.8621 -27.9339
rfingers 7.12502
rthumb 5.5075 -57.8423
lclavicle 4.77083e-015 -2.78299e-015
lhumerus -27.2108 -3.60945 87.5386
lradius 28.6685
lwrist 14.5595
lhand -26.4907 -3.9741
lfingers 7.12502
lthumb 0.0718053 26.0056
rfemur -21.5536 -3.04585 19.9026
rtibia 26.8066
rfoot -13.0587 -3.53484
rtoes 9.30433
lfemur -20.4018 7.24615 -18.9456
ltibia 24.2294
lfoot -10.7917 4.48699
ltoes 4.88247
49
root 0.223466 17.5336 -14.3595 8.89533 -0.616609 -1.3397
lowerback 2.64104 -0.0347968 -0.225861
upperback 6.42212 -0.114368 1.66836
thorax 5.1631 -0.116587 1.85267
lowerneck -11.7736 0.498793 -1.25491
upperneck 34.6832 0.879674 0.502687
head 13.6883 0.282938 0.552421
rclavicle 4.37326e-015 5.76476e-015
rhumerus -31.5365 -9.01473 -80.4517
rradius 37.2032
rwrist 18.2739
rhand -20.874 -27.9448
rfingers 7.12502
rthumb 5.49597 -57.8535
lclavicle 4.37326e-015 5.76476e-015
lhumerus -27.1885 -3.64984 87.552
lradius 28.6881
lwrist 14.5654
lhand -26.5015 -4.01194
lfingers 7.12502
lthumb 0.061388 25.9678
rfemur -21.5583 -3.04961 19.9088
rtibia 26.8243
rfoot -13.0684 -3.5441
rtoes 9.28429
lfemur -20.4162 7.24451 -18.9396
ltibia 24.2598
lfoot -10.8053 4.48191
ltoes 4.87328
50
root 0.223957 17.5328 -14.3597 8.89304 -0.606103 -1.34249
lowerback 2.65155 -0.0348426 -0.225718
upperback 6.4238 -0.114452 1.6706
thorax 5.15892 -0.116666 1.8549
lowerneck -11.7825 0.495168 -1.25549
upperneck 34.6724 0.871933 0.510529
head 13.6856 0.280633 0.554487
rclavicle -1.98785e-015 3.18055e-015
rhumerus -31.5104 -9.00304 -80.4651
rradius 37.2264
rwrist 18.2693
rhand -20.8824 -27.9587
rfingers 7.12502
rthumb 5.48785 -57.8677
lclavicle -1.98785e-015 3.18055e-015
lhumerus -27.1635 -3.6849 87.5612
lradius 28.7117
lwrist 14.5809
lhand -26.5054 -4.04262
lfingers 7.12502
lthumb 0.0575732 25.9371
rfemur -21.5663 -3.05554 19.9111
rtibia 26.8464
rfoot -13.0807 -3.5528
rtoes 9.26711
lfemur -20.4321 7.24202 -18.938
ltibia 24.2919
lfoot -10.8192 4.47855
ltoes 4.86565
51
root 0.224425 17.5319 -14.36 8.89241 -0.59521 -1.34386
lowerback 2.66125 -0.0359486 -0.226921
upperback 6.42471 -0.11591 1.67216
thorax 5.15444 -0.11747 1.85717
lowerneck -11.788 0.491842 -1.25758
upperneck 34.6594 0.864515 0.519589
head 13.681 0.278439 0.557313
rclavicle -1.09332e-015 -1.49089e-014
rhumerus -31.4848 -8.9865 -80.4805
rradius 37.2495
rwrist 18.2628
rhand -20.8856 -27.9673
rfingers 7.12502
rthumb 5.48477 -57.8763
lclavicle -1.09332e-015 -1.49089e-014
lhumerus -27.1404 -3.71663 87.5667
lradius 28.738
lwrist 14.6021
lhand -26.5138 -4.0819
lfingers 7.12502
lthumb 0.0495267 25.8978
rfemur -21.5784 -3.06151 19.9119
rtibia 26.8728
rfoot -13.0949 -3.56236
rtoes 9.25242
lfemur -20.4512 7.23792 -18.9382
ltibia 24.3262
lfoot -10.8333 4.47765
ltoes 4.85198
52
root 0.224917 17.5309 -14.3602 8.8919 -0.583587 -1.3449
lowerback 2.67153 -0.0382459 -0.2279
upperback 6.42559 -0.118946 1.67357
thorax 5.14964 -0.119042 1.85911
lowerneck -11.7934 0.489507 -1.26014
upperneck 34.6465 0.859163 0.527224
head 13.6764 0.276878 0.559959
rclavicle -3.08116e-015 6.55989e-015
rhumerus -31.4593 -8.96539 -80.4972
rradius 37.2725
rwrist 18.2588
rhand -20.89 -27.9624
rfingers 7.12502
rthumb 5.48058 -57.8715
lclavicle -3.08116e-015 6.55989e-015
lhumerus -27.1185 -3.73916 87.5682
lradius 28.7666
lwrist 14.6237
lhand -26.5231 -4.11869
lfingers 7.12502
lthumb 0.0405441 25.8611
rfemur -21.5925 -3.0676 19.912
rtibia 26.9028
rfoot -13.1107 -3.57226
rtoes 9.2371
lfemur -20.4717 7.2332 -18.939
ltibia 24.3628
lfoot -10.8482 4.47729
ltoes 4.8382
